<?xml version="1.0" encoding="UTF-8"?> <svg xmlns="http://www.w3.org/2000/svg" width="399" height="85" viewBox="0 0 399 85" fill="none"> <path fill-rule="evenodd" clip-rule="evenodd" d="M81.4461 53.2866H53.4425V81.613H28.5673V53.2866H0V28.4115H28.5673V0H53.4425V28.4115H81.4461V53.2866Z" fill="url(#paint0_linear_524_1781)"></path> <path fill-rule="evenodd" clip-rule="evenodd" d="M40.4751 43.4602L39.8081 39.9309C37.7744 39.9309 34.6023 38.6679 32.8337 37.7489C30.6499 36.6145 29.8239 35.7614 26.5279 35.7614V35.637L27.0391 35.612L27.0261 35.4642L26.2857 35.3899V35.2655H26.8915L26.8875 35.0452L25.7997 34.8932V34.7689H27.013C26.9641 34.581 27.1778 34.44 27.0367 34.4124C26.2938 34.2688 25.8657 34.2421 25.1938 34.2421V34.0234C28.4507 34.0234 28.816 34.6871 31.0348 35.369C31.9513 35.6504 33.0163 35.9467 33.9206 36.1395C34.8535 36.3382 35.5124 36.8808 36.8366 36.8808H38.1707C39.212 36.8808 40.0837 36.3833 40.5966 36.3833H41.2025C42.0065 36.3833 42.3955 36.8808 42.7796 36.8808C43.0584 36.8808 43.1938 36.501 43.1938 36.2155V35.5944C43.1938 35.1236 42.4942 35.3048 42.0179 35.3048L40.851 35.2956L40.7687 34.849C41.5491 34.6628 42.8415 34.8715 43.3145 34.4759C43.4759 34.3406 44.2865 32.763 44.2865 32.49C44.2865 32.2947 42.6238 31.6369 42.3515 31.2947L44.5287 31C44.6485 31.0818 44.9527 31.3831 45.0171 31.3932L46.0169 31.2521L45.8619 32.6144C46.9416 33.1987 48.4713 33.8924 48.1688 35.3281C47.9845 35.8549 47.819 35.96 47.7146 36.137C47.5254 36.3148 47.9152 36.8816 47.8027 37.0661C47.6388 37.248 47.6119 36.9784 47.4757 37.0702C47.3615 37.1479 47.3517 37.3833 47.3305 37.4626C47.3224 37.4926 47.2204 37.4175 47.196 37.4367C47.174 37.4551 47.2172 37.5319 47.2253 37.5602C47.2433 37.6153 47.1674 37.6512 47.0631 37.6496C46.8233 37.6462 46.7956 38.0711 46.5347 38.0427C46.0992 37.9576 46.0862 37.9384 45.7673 37.6546L45.4852 38.5402C46.259 38.6062 46.8486 38.627 47.6306 38.9467C48.5741 38.6863 50.271 38.9768 51.5716 39.1463C51.8766 39.1463 54.2577 38.395 54.6279 38.2372C55.2313 38.0744 55.7777 37.7981 56.337 37.5678C57.5659 37.147 56.916 36.9025 57.579 36.5043L57.4534 37.1278C57.296 37.9167 57.8701 37.7038 58.5844 37.6763L59.3574 37.5344C59.7684 37.4334 59.7276 37.4409 60 37.3758C59.5328 38.0895 58.418 38.4058 57.3596 38.4718C56.8133 38.4693 56.0647 39.0594 55.3895 39.4626C54.23 40.1555 53.7578 40.2681 52.5126 40.8291C51.3539 41.3516 48.6736 41.2757 47.2139 42.0461C47.1307 42.4109 46.8274 43.4535 45.8105 44.9502C45.3963 46.2157 45.0139 46.8952 45.0139 48.0688C45.0139 48.5187 46.4107 51.5338 46.6504 52.1916C46.8274 52.6791 47.8214 56.5005 47.7806 56.9062C47.7717 56.9939 46.2982 60.6091 46.1147 61.0048C45.7543 61.7811 44.3958 64.403 44.3958 65.1493V65.2545C44.3958 65.6042 44.6021 65.4749 44.6021 65.6769C44.6021 65.9815 43.984 65.9481 43.984 66.4148L43.9579 67.4716L44.0671 69.3873L44.6021 70H43.5722C43.1604 69.717 42.6858 68.9332 42.3123 68.5484C41.956 68.1794 40.6888 68.0851 40.6888 67.4691V67.3639C40.6888 66.631 42.0277 65.7211 42.0277 65.3605C42.0277 64.7453 41.2694 63.6376 41.2041 62.8296C41.8345 63.3029 41.5809 63.8404 42.6458 64.0942C42.6458 62.8479 42.9418 61.2953 43.2223 60.256C43.4376 59.4614 44.7048 57.5807 44.7048 57.3461C44.7048 55.2835 42.928 53.7484 42.5398 52.0455L41.7448 52.1933C41.5197 53.1816 36.5627 57.7677 35.6428 57.7677C35.2718 57.7677 33.9744 56.3244 33.6026 55.9438C32.4928 54.8069 31.9725 54.205 31.0854 52.8285C30.7388 52.2909 30.3351 51.7534 29.8956 51.3051C29.1144 50.5079 29.3917 50.4837 28.1163 50.28C27.3841 50.1632 28.2729 49.8543 27.4428 49.5989C26.8459 49.4152 26.8915 49.4019 26.4031 49.1874C25.3814 48.7391 25.1856 49.0112 24 49.0112V48.6949C24 48.0421 25.5559 47.7282 26.1984 47.5721C26.8638 47.4102 26.9446 47.6448 27.6067 47.3267C27.9606 47.1573 28.2762 46.7975 28.7369 46.7975C29.3134 46.7975 29.2555 48.3785 29.8695 48.3785C30.4469 48.3785 30.5023 48.1681 31.3112 48.1681C31.1555 48.3067 30.4876 48.6874 30.4876 48.9061C30.4876 50.1089 32.7122 51.316 33.614 51.8201C34.1163 52.1015 35.7015 54.1833 35.7456 54.1833C36.2756 54.1833 38.0712 50.6315 38.8981 49.8476C38.7187 48.2516 39.6972 47.265 40.5126 46.4694C40.6798 46.2132 40.6586 45.6764 40.6252 45.4093L40.4751 43.4602Z" fill="white"></path> <path fill-rule="evenodd" clip-rule="evenodd" d="M61.886 38.284V35.398H59V32.885H61.886V30H64.399V32.885H67.284V35.398H64.399V38.284H61.886Z" fill="white"></path> <path fill-rule="evenodd" clip-rule="evenodd" d="M234.693 20.5761V15.2231C248.645 15.2231 262.597 15.2231 276.569 15.2231V20.5761C262.597 20.5761 248.646 20.5761 234.693 20.5761Z" fill="#E50004"></path> <path fill-rule="evenodd" clip-rule="evenodd" d="M360.932 30.258H384.347C392.175 30.258 392.175 5.35197 384.347 5.35197H360.932C353.085 5.35197 353.085 30.258 360.932 30.258ZM360.932 35.61C345.791 35.61 345.79 0.000976562 360.932 0.000976562H384.347C399.488 0.000976562 399.487 35.61 384.347 35.61H360.932Z" fill="#1B1C20"></path> <path fill-rule="evenodd" clip-rule="evenodd" d="M234.693 35.704V30.353C248.645 30.353 262.597 30.353 276.569 30.353V35.704C262.597 35.704 248.646 35.704 234.693 35.704Z" fill="#1B1C20"></path> <path fill-rule="evenodd" clip-rule="evenodd" d="M234.693 5.448V0.0939941C248.645 0.0939941 262.597 0.0939941 276.569 0.0939941V5.447C262.597 5.448 248.646 5.448 234.693 5.448Z" fill="#1B1C20"></path> <path fill-rule="evenodd" clip-rule="evenodd" d="M328.366 0.0939941H347.557V5.448H340.668V30.353H347.557V35.704H328.366V30.353H335.255V5.448H328.366V0.0939941Z" fill="#1B1C20"></path> <path fill-rule="evenodd" clip-rule="evenodd" d="M163.706 0.0939941H182.896V5.448H176.007V30.353H182.896V35.704H163.706V30.353H170.595V5.448H163.706V0.0939941Z" fill="#1B1C20"></path> <path fill-rule="evenodd" clip-rule="evenodd" d="M281.521 5.448V0.0939941H320.689C323.356 0.0939941 324.374 3.498 322.224 4.974L291.614 30.353H323.395V35.704L284.226 35.686C281.731 35.686 280.541 32.603 282.479 30.996L313.281 5.448H281.521Z" fill="#1B1C20"></path> <path fill-rule="evenodd" clip-rule="evenodd" d="M193.279 35.704H187.867V2.781C187.867 0.359998 190.823 -0.774003 192.492 0.908997L224.331 27.307V0.0939941H229.743L229.724 33.037C229.724 35.25 227.056 36.517 225.29 35.06L193.28 8.491L193.279 35.704Z" fill="#1B1C20"></path> <path fill-rule="evenodd" clip-rule="evenodd" d="M142.594 15.223C149.004 15.223 153.322 8.567 153.322 2.78V0.0939941H158.734V2.78C158.734 8.567 155.798 14.543 150.943 17.909C155.798 21.256 158.734 27.232 158.734 33.036V35.703H153.322V33.036C153.322 27.231 149.004 20.575 142.594 20.575L122.252 20.555V35.685H116.859C116.859 23.827 116.859 11.971 116.859 0.112999H122.252V15.242L142.594 15.223Z" fill="#1B1C20"></path> <path d="M116.495 71.9456H123.474V80.79H121.975V73.1865H117.994V80.79H116.495V71.9456Z" fill="#E50004"></path> <path d="M128.046 84.1796V71.9456H129.412V73.0949C129.734 72.6451 130.098 72.3092 130.503 72.0871C130.908 71.8595 131.4 71.7457 131.977 71.7457C132.732 71.7457 133.398 71.94 133.976 72.3287C134.553 72.7173 134.989 73.267 135.283 73.9776C135.578 74.6827 135.725 75.4573 135.725 76.3012C135.725 77.2062 135.561 78.0223 135.233 78.7496C134.911 79.4714 134.439 80.0266 133.818 80.4153C133.201 80.7984 132.552 80.9899 131.869 80.9899C131.369 80.9899 130.919 80.8844 130.52 80.6734C130.125 80.4625 129.801 80.196 129.545 79.8739V84.1796H128.046ZM129.404 76.4178C129.404 77.556 129.634 78.3971 130.095 78.9412C130.556 79.4853 131.114 79.7574 131.769 79.7574C132.435 79.7574 133.004 79.477 133.476 78.9162C133.954 78.3499 134.192 77.4754 134.192 76.2929C134.192 75.1658 133.959 74.3219 133.493 73.7611C133.032 73.2003 132.48 72.92 131.835 72.92C131.197 72.92 130.631 73.2198 130.137 73.8194C129.648 74.4135 129.404 75.2796 129.404 76.4178Z" fill="#E50004"></path> <path d="M139.299 76.3678C139.299 74.7299 139.754 73.5168 140.665 72.7284C141.425 72.0733 142.352 71.7457 143.446 71.7457C144.662 71.7457 145.656 72.1454 146.428 72.9449C147.199 73.7389 147.585 74.8382 147.585 76.2429C147.585 77.3811 147.413 78.2777 147.069 78.9329C146.73 79.5825 146.233 80.0877 145.578 80.4486C144.929 80.8095 144.218 80.9899 143.446 80.9899C142.208 80.9899 141.206 80.5929 140.44 79.799C139.679 79.005 139.299 77.8613 139.299 76.3678ZM140.839 76.3678C140.839 77.5004 141.087 78.3499 141.581 78.9162C142.075 79.477 142.697 79.7574 143.446 79.7574C144.19 79.7574 144.809 79.4742 145.303 78.9079C145.797 78.3416 146.045 77.4782 146.045 76.3178C146.045 75.2241 145.795 74.3968 145.295 73.8361C144.801 73.2697 144.185 72.9866 143.446 72.9866C142.697 72.9866 142.075 73.267 141.581 73.8277C141.087 74.3885 140.839 75.2352 140.839 76.3678Z" fill="#E50004"></path> <path d="M156.815 68.581H158.314V72.8034C158.625 72.448 158.966 72.1843 159.338 72.0122C159.71 71.8345 160.11 71.7457 160.538 71.7457C161.587 71.7457 162.417 72.1843 163.028 73.0615C163.644 73.9332 163.952 75.0325 163.952 76.3595C163.952 77.7419 163.622 78.8607 162.961 79.7157C162.3 80.5652 161.479 80.9899 160.496 80.9899C160.174 80.9899 159.846 80.9399 159.513 80.84C159.18 80.7401 158.78 80.468 158.314 80.0239V84.1796H156.815V80.0239C156.515 80.3459 156.182 80.5874 155.816 80.7484C155.455 80.9094 155.063 80.9899 154.641 80.9899C153.714 80.9899 152.904 80.5846 152.21 79.774C151.516 78.9579 151.169 77.7919 151.169 76.2762C151.169 74.9937 151.482 73.9193 152.11 73.0532C152.737 72.1815 153.581 71.7457 154.641 71.7457C155.086 71.7457 155.488 71.8345 155.849 72.0122C156.21 72.1843 156.532 72.448 156.815 72.8034V68.581ZM158.306 76.4011C158.306 77.7336 158.489 78.6303 158.855 79.0911C159.222 79.5464 159.68 79.774 160.23 79.774C160.84 79.774 161.359 79.4936 161.787 78.9329C162.22 78.3666 162.437 77.4893 162.437 76.3012C162.437 75.1797 162.237 74.3441 161.837 73.7944C161.443 73.2448 160.935 72.9699 160.313 72.9699C159.647 72.9699 159.144 73.2559 158.805 73.8277C158.472 74.3996 158.306 75.2574 158.306 76.4011ZM152.693 76.2346C152.693 77.4838 152.901 78.3832 153.317 78.9329C153.739 79.4825 154.261 79.7574 154.883 79.7574C155.532 79.7574 156.018 79.4853 156.34 78.9412C156.662 78.3915 156.823 77.5698 156.823 76.4761C156.823 75.3101 156.654 74.4357 156.315 73.8527C155.977 73.2697 155.466 72.9783 154.783 72.9783C154.167 72.9783 153.664 73.2642 153.276 73.8361C152.887 74.4024 152.693 75.2019 152.693 76.2346Z" fill="#E50004"></path> <path d="M174.081 77.9418L175.63 78.1334C175.386 79.0384 174.933 79.7407 174.273 80.2404C173.612 80.7401 172.768 80.9899 171.741 80.9899C170.447 80.9899 169.42 80.5929 168.66 79.799C167.904 78.9995 167.527 77.8807 167.527 76.4428C167.527 74.9548 167.91 73.8 168.676 72.9783C169.442 72.1565 170.436 71.7457 171.658 71.7457C172.84 71.7457 173.806 72.1482 174.556 72.9533C175.305 73.7583 175.68 74.891 175.68 76.3511C175.68 76.44 175.677 76.5732 175.672 76.7509H169.076C169.132 77.7225 169.406 78.4665 169.9 78.9828C170.395 79.4992 171.011 79.7574 171.749 79.7574C172.299 79.7574 172.768 79.613 173.157 79.3243C173.545 79.0356 173.854 78.5748 174.081 77.9418ZM169.159 75.5183H174.098C174.031 74.7744 173.842 74.2164 173.532 73.8444C173.054 73.267 172.435 72.9783 171.674 72.9783C170.986 72.9783 170.406 73.2087 169.934 73.6695C169.467 74.1303 169.209 74.7466 169.159 75.5183Z" fill="#E50004"></path> <path d="M185.609 77.5504L187.083 77.7419C186.922 78.758 186.508 79.5547 185.842 80.1321C185.181 80.704 184.368 80.9899 183.402 80.9899C182.191 80.9899 181.217 80.5957 180.478 79.8073C179.746 79.0134 179.379 77.878 179.379 76.4011C179.379 75.4462 179.537 74.6106 179.854 73.8944C180.17 73.1781 180.651 72.6424 181.295 72.287C181.944 71.9261 182.649 71.7457 183.41 71.7457C184.37 71.7457 185.156 71.99 185.767 72.4786C186.378 72.9616 186.769 73.6501 186.941 74.5439L185.484 74.7688C185.345 74.1747 185.098 73.7278 184.742 73.428C184.393 73.1282 183.968 72.9783 183.468 72.9783C182.713 72.9783 182.1 73.2503 181.628 73.7944C181.156 74.333 180.92 75.188 180.92 76.3595C180.92 77.5476 181.147 78.411 181.603 78.9495C182.058 79.4881 182.652 79.7574 183.385 79.7574C183.973 79.7574 184.465 79.5769 184.859 79.216C185.253 78.8551 185.503 78.2999 185.609 77.5504Z" fill="#E50004"></path> <path d="M196.461 77.5504L197.935 77.7419C197.774 78.758 197.361 79.5547 196.694 80.1321C196.034 80.704 195.22 80.9899 194.254 80.9899C193.044 80.9899 192.069 80.5957 191.331 79.8073C190.598 79.0134 190.232 77.878 190.232 76.4011C190.232 75.4462 190.39 74.6106 190.706 73.8944C191.023 73.1781 191.503 72.6424 192.147 72.287C192.797 71.9261 193.502 71.7457 194.262 71.7457C195.223 71.7457 196.009 71.99 196.619 72.4786C197.23 72.9616 197.622 73.6501 197.794 74.5439L196.336 74.7688C196.197 74.1747 195.95 73.7278 195.595 73.428C195.245 73.1282 194.82 72.9783 194.321 72.9783C193.566 72.9783 192.952 73.2503 192.48 73.7944C192.008 74.333 191.772 75.188 191.772 76.3595C191.772 77.5476 192 78.411 192.455 78.9495C192.911 79.4881 193.505 79.7574 194.238 79.7574C194.826 79.7574 195.317 79.5769 195.712 79.216C196.106 78.8551 196.356 78.2999 196.461 77.5504Z" fill="#E50004"></path> <path d="M201.175 76.3678C201.175 74.7299 201.63 73.5168 202.541 72.7284C203.301 72.0733 204.228 71.7457 205.322 71.7457C206.538 71.7457 207.532 72.1454 208.304 72.9449C209.075 73.7389 209.461 74.8382 209.461 76.2429C209.461 77.3811 209.289 78.2777 208.945 78.9329C208.606 79.5825 208.109 80.0877 207.454 80.4486C206.805 80.8095 206.094 80.9899 205.322 80.9899C204.084 80.9899 203.082 80.5929 202.316 79.799C201.555 79.005 201.175 77.8613 201.175 76.3678ZM202.715 76.3678C202.715 77.5004 202.962 78.3499 203.457 78.9162C203.951 79.477 204.573 79.7574 205.322 79.7574C206.066 79.7574 206.685 79.4742 207.179 78.9079C207.673 78.3416 207.92 77.4782 207.92 76.3178C207.92 75.2241 207.671 74.3968 207.171 73.8361C206.677 73.2697 206.061 72.9866 205.322 72.9866C204.573 72.9866 203.951 73.267 203.457 73.8277C202.962 74.3885 202.715 75.2352 202.715 76.3678Z" fill="#E50004"></path> <path d="M213.544 84.1796V71.9456H214.91V73.0949C215.232 72.6451 215.596 72.3092 216.001 72.0871C216.406 71.8595 216.898 71.7457 217.475 71.7457C218.23 71.7457 218.896 71.94 219.474 72.3287C220.051 72.7173 220.487 73.267 220.781 73.9776C221.076 74.6827 221.223 75.4573 221.223 76.3012C221.223 77.2062 221.059 78.0223 220.731 78.7496C220.409 79.4714 219.937 80.0266 219.316 80.4153C218.699 80.7984 218.05 80.9899 217.367 80.9899C216.867 80.9899 216.417 80.8844 216.018 80.6734C215.623 80.4625 215.299 80.196 215.043 79.8739V84.1796H213.544ZM214.902 76.4178C214.902 77.556 215.132 78.3971 215.593 78.9412C216.054 79.4853 216.612 79.7574 217.267 79.7574C217.933 79.7574 218.502 79.477 218.974 78.9162C219.452 78.3499 219.69 77.4754 219.69 76.2929C219.69 75.1658 219.457 74.3219 218.991 73.7611C218.53 73.2003 217.978 72.92 217.334 72.92C216.695 72.92 216.129 73.2198 215.635 73.8194C215.146 74.4135 214.902 75.2796 214.902 76.4178Z" fill="#E50004"></path> <path d="M231.126 79.6991C230.571 80.171 230.035 80.5041 229.519 80.6984C229.008 80.8928 228.458 80.9899 227.87 80.9899C226.898 80.9899 226.151 80.754 225.63 80.282C225.108 79.8045 224.847 79.1966 224.847 78.4582C224.847 78.0251 224.944 77.6309 225.138 77.2756C225.338 76.9147 225.596 76.626 225.913 76.4094C226.235 76.1929 226.596 76.0291 226.995 75.9181C227.29 75.8404 227.734 75.7654 228.328 75.6932C229.538 75.5489 230.429 75.3768 231.001 75.1769C231.007 74.9715 231.01 74.841 231.01 74.7855C231.01 74.1747 230.868 73.7444 230.585 73.4946C230.202 73.1559 229.633 72.9866 228.878 72.9866C228.172 72.9866 227.651 73.1115 227.312 73.3614C226.979 73.6056 226.732 74.0415 226.571 74.6689L225.105 74.469C225.238 73.8416 225.457 73.3364 225.763 72.9533C226.068 72.5646 226.51 72.2676 227.087 72.0622C227.664 71.8512 228.333 71.7457 229.094 71.7457C229.849 71.7457 230.463 71.8345 230.935 72.0122C231.407 72.1899 231.754 72.4147 231.976 72.6868C232.198 72.9533 232.353 73.292 232.442 73.7028C232.492 73.9582 232.517 74.419 232.517 75.0853V77.084C232.517 78.4776 232.547 79.3604 232.609 79.7324C232.675 80.0988 232.803 80.4514 232.992 80.79H231.426C231.271 80.4791 231.171 80.1155 231.126 79.6991ZM231.001 76.3511C230.457 76.5732 229.641 76.762 228.553 76.9175C227.936 77.0063 227.501 77.1062 227.245 77.2173C226.99 77.3283 226.793 77.4921 226.654 77.7086C226.515 77.9196 226.446 78.1556 226.446 78.4165C226.446 78.8163 226.596 79.1494 226.895 79.4159C227.201 79.6824 227.645 79.8156 228.228 79.8156C228.805 79.8156 229.319 79.6907 229.769 79.4409C230.218 79.1855 230.549 78.8385 230.76 78.3999C230.921 78.0612 231.001 77.5615 231.001 76.9008V76.3511Z" fill="#E50004"></path> <path d="M241.791 80.79V68.581H246.372C247.304 68.581 248.051 68.7059 248.612 68.9558C249.178 69.2001 249.62 69.5804 249.936 70.0967C250.258 70.6075 250.419 71.1433 250.419 71.7041C250.419 72.226 250.278 72.7173 249.994 73.1781C249.711 73.639 249.284 74.0109 248.712 74.2941C249.45 74.5106 250.017 74.8798 250.411 75.4017C250.811 75.9236 251.01 76.5399 251.01 77.2506C251.01 77.8225 250.888 78.3555 250.644 78.8496C250.405 79.3382 250.108 79.7157 249.753 79.9822C249.398 80.2487 248.951 80.4514 248.412 80.5902C247.879 80.7234 247.224 80.79 246.447 80.79H241.791ZM243.407 73.7111H246.047C246.763 73.7111 247.277 73.6639 247.588 73.5696C247.998 73.4474 248.307 73.2448 248.512 72.9616C248.723 72.6784 248.828 72.3231 248.828 71.8956C248.828 71.4903 248.731 71.135 248.537 70.8296C248.343 70.5187 248.065 70.3077 247.704 70.1967C247.343 70.0801 246.724 70.0218 245.847 70.0218H243.407V73.7111ZM243.407 79.3493H246.447C246.969 79.3493 247.335 79.3298 247.546 79.291C247.918 79.2244 248.229 79.1133 248.479 78.9579C248.729 78.8024 248.934 78.5775 249.095 78.2833C249.256 77.9835 249.336 77.6392 249.336 77.2506C249.336 76.7953 249.22 76.4011 248.987 76.068C248.754 75.7293 248.429 75.4934 248.012 75.3601C247.601 75.2213 247.007 75.1519 246.23 75.1519H243.407V79.3493Z" fill="#E50004"></path> <path d="M261.139 79.6991C260.584 80.171 260.048 80.5041 259.532 80.6984C259.021 80.8928 258.471 80.9899 257.883 80.9899C256.911 80.9899 256.164 80.754 255.642 80.282C255.12 79.8045 254.859 79.1966 254.859 78.4582C254.859 78.0251 254.957 77.6309 255.151 77.2756C255.351 76.9147 255.609 76.626 255.925 76.4094C256.247 76.1929 256.608 76.0291 257.008 75.9181C257.302 75.8404 257.747 75.7654 258.341 75.6932C259.551 75.5489 260.442 75.3768 261.014 75.1769C261.019 74.9715 261.022 74.841 261.022 74.7855C261.022 74.1747 260.881 73.7444 260.598 73.4946C260.214 73.1559 259.645 72.9866 258.89 72.9866C258.185 72.9866 257.663 73.1115 257.325 73.3614C256.991 73.6056 256.744 74.0415 256.583 74.6689L255.118 74.469C255.251 73.8416 255.47 73.3364 255.776 72.9533C256.081 72.5646 256.522 72.2676 257.1 72.0622C257.677 71.8512 258.346 71.7457 259.107 71.7457C259.862 71.7457 260.475 71.8345 260.947 72.0122C261.419 72.1899 261.766 72.4147 261.988 72.6868C262.21 72.9533 262.366 73.292 262.455 73.7028C262.505 73.9582 262.53 74.419 262.53 75.0853V77.084C262.53 78.4776 262.56 79.3604 262.621 79.7324C262.688 80.0988 262.816 80.4514 263.004 80.79H261.439C261.283 80.4791 261.183 80.1155 261.139 79.6991ZM261.014 76.3511C260.47 76.5732 259.654 76.762 258.565 76.9175C257.949 77.0063 257.513 77.1062 257.258 77.2173C257.003 77.3283 256.805 77.4921 256.667 77.7086C256.528 77.9196 256.458 78.1556 256.458 78.4165C256.458 78.8163 256.608 79.1494 256.908 79.4159C257.214 79.6824 257.658 79.8156 258.241 79.8156C258.818 79.8156 259.332 79.6907 259.781 79.4409C260.231 79.1855 260.561 78.8385 260.772 78.3999C260.933 78.0612 261.014 77.5615 261.014 76.9008V76.3511Z" fill="#E50004"></path> <path d="M272.949 77.5504L274.423 77.7419C274.262 78.758 273.849 79.5547 273.183 80.1321C272.522 80.704 271.709 80.9899 270.742 80.9899C269.532 80.9899 268.558 80.5957 267.819 79.8073C267.086 79.0134 266.72 77.878 266.72 76.4011C266.72 75.4462 266.878 74.6106 267.195 73.8944C267.511 73.1781 267.991 72.6424 268.635 72.287C269.285 71.9261 269.99 71.7457 270.751 71.7457C271.711 71.7457 272.497 71.99 273.108 72.4786C273.718 72.9616 274.11 73.6501 274.282 74.5439L272.824 74.7688C272.686 74.1747 272.439 73.7278 272.083 73.428C271.733 73.1282 271.309 72.9783 270.809 72.9783C270.054 72.9783 269.44 73.2503 268.969 73.7944C268.497 74.333 268.261 75.188 268.261 76.3595C268.261 77.5476 268.488 78.411 268.944 78.9495C269.399 79.4881 269.993 79.7574 270.726 79.7574C271.314 79.7574 271.806 79.5769 272.2 79.216C272.594 78.8551 272.844 78.2999 272.949 77.5504Z" fill="#E50004"></path> <path d="M278.031 71.9456H279.53V78.6914L283.685 71.9456H285.301V80.79H283.802V74.0859L279.646 80.79H278.031V71.9456Z" fill="#E50004"></path> <path d="M290.617 71.9456H297.579V80.79H296.089V73.1865H292.116V77.592C292.116 78.6192 292.083 79.2965 292.016 79.6241C291.949 79.9517 291.766 80.2376 291.466 80.4819C291.167 80.7262 290.734 80.8483 290.167 80.8483C289.817 80.8483 289.415 80.8261 288.96 80.7817V79.5325H289.618C289.928 79.5325 290.151 79.502 290.284 79.4409C290.417 79.3743 290.506 79.2715 290.55 79.1327C290.595 78.9939 290.617 78.5414 290.617 77.7753V71.9456Z" fill="#E50004"></path> <path d="M302.135 71.9456H303.635V75.4017H305.533C306.771 75.4017 307.724 75.6433 308.39 76.1263C309.062 76.6038 309.398 77.2645 309.398 78.1084C309.398 78.8468 309.117 79.4797 308.556 80.0072C308.001 80.5291 307.11 80.79 305.883 80.79H302.135V71.9456ZM303.635 79.5575H305.209C306.158 79.5575 306.835 79.4409 307.241 79.2077C307.646 78.9745 307.849 78.6108 307.849 78.1167C307.849 77.7336 307.699 77.3922 307.399 77.0924C307.099 76.7925 306.436 76.6426 305.408 76.6426H303.635V79.5575Z" fill="#E50004"></path> <path d="M319.426 77.9418L320.975 78.1334C320.731 79.0384 320.278 79.7407 319.617 80.2404C318.957 80.7401 318.113 80.9899 317.086 80.9899C315.792 80.9899 314.765 80.5929 314.004 79.799C313.249 78.9995 312.872 77.8807 312.872 76.4428C312.872 74.9548 313.255 73.8 314.021 72.9783C314.787 72.1565 315.781 71.7457 317.002 71.7457C318.185 71.7457 319.151 72.1482 319.901 72.9533C320.65 73.7583 321.025 74.891 321.025 76.3511C321.025 76.44 321.022 76.5732 321.017 76.7509H314.421C314.476 77.7225 314.751 78.4665 315.245 78.9828C315.739 79.4992 316.356 79.7574 317.094 79.7574C317.644 79.7574 318.113 79.613 318.501 79.3243C318.89 79.0356 319.198 78.5748 319.426 77.9418ZM314.504 75.5183H319.443C319.376 74.7744 319.187 74.2164 318.876 73.8444C318.399 73.267 317.78 72.9783 317.019 72.9783C316.331 72.9783 315.75 73.2087 315.279 73.6695C314.812 74.1303 314.554 74.7466 314.504 75.5183Z" fill="#E50004"></path> <path d="M325.19 71.9456H328.646C329.496 71.9456 330.126 72.0177 330.537 72.1621C330.953 72.3009 331.309 72.5591 331.603 72.9366C331.903 73.3142 332.053 73.7667 332.053 74.2941C332.053 74.7161 331.964 75.0853 331.786 75.4017C331.614 75.7127 331.353 75.9736 331.003 76.1846C331.42 76.3234 331.764 76.5843 332.036 76.9674C332.314 77.345 332.452 77.7947 332.452 78.3166C332.397 79.155 332.097 79.7768 331.553 80.1821C331.009 80.5874 330.218 80.79 329.179 80.79H325.19V71.9456ZM326.689 75.6682H328.288C328.927 75.6682 329.365 75.6349 329.604 75.5683C329.843 75.5017 330.057 75.3684 330.245 75.1686C330.434 74.9631 330.529 74.7188 330.529 74.4357C330.529 73.9693 330.362 73.6445 330.029 73.4613C329.701 73.2781 329.138 73.1865 328.338 73.1865H326.689V75.6682ZM326.689 79.5575H328.663C329.513 79.5575 330.096 79.4603 330.412 79.266C330.728 79.0661 330.895 78.7247 330.912 78.2416C330.912 77.9585 330.82 77.6975 330.637 77.4588C330.454 77.2145 330.215 77.0618 329.921 77.0007C329.626 76.9341 329.154 76.9008 328.505 76.9008H326.689V79.5575Z" fill="#E50004"></path> <path d="M335.82 76.3678C335.82 74.7299 336.275 73.5168 337.186 72.7284C337.947 72.0733 338.874 71.7457 339.968 71.7457C341.184 71.7457 342.177 72.1454 342.949 72.9449C343.721 73.7389 344.107 74.8382 344.107 76.2429C344.107 77.3811 343.935 78.2777 343.59 78.9329C343.252 79.5825 342.755 80.0877 342.1 80.4486C341.45 80.8095 340.739 80.9899 339.968 80.9899C338.73 80.9899 337.727 80.5929 336.961 79.799C336.201 79.005 335.82 77.8613 335.82 76.3678ZM337.361 76.3678C337.361 77.5004 337.608 78.3499 338.102 78.9162C338.596 79.477 339.218 79.7574 339.968 79.7574C340.712 79.7574 341.331 79.4742 341.825 78.9079C342.319 78.3416 342.566 77.4782 342.566 76.3178C342.566 75.2241 342.316 74.3968 341.816 73.8361C341.322 73.2697 340.706 72.9866 339.968 72.9866C339.218 72.9866 338.596 73.267 338.102 73.8277C337.608 74.3885 337.361 75.2352 337.361 76.3678Z" fill="#E50004"></path> <path d="M348.189 71.9456H349.688V78.6914L353.844 71.9456H355.459V80.79H353.96V74.0859L349.805 80.79H348.189V71.9456ZM353.394 68.5977H354.418C354.335 69.2917 354.08 69.8247 353.652 70.1967C353.23 70.5687 352.667 70.7546 351.962 70.7546C351.251 70.7546 350.682 70.5714 350.254 70.205C349.832 69.833 349.58 69.2972 349.497 68.5977H350.521C350.599 68.9752 350.751 69.2584 350.979 69.4471C351.212 69.6304 351.523 69.722 351.912 69.722C352.361 69.722 352.7 69.6331 352.928 69.4555C353.161 69.2722 353.316 68.9863 353.394 68.5977Z" fill="#E50004"></path> <path d="M365.627 68.581H373.272V80.79H371.656V70.0218H367.243V76.3095C367.243 77.5865 367.181 78.522 367.059 79.1161C366.943 79.7102 366.693 80.1738 366.31 80.5069C365.927 80.8345 365.441 80.9982 364.852 80.9982C364.497 80.9982 364.07 80.9316 363.57 80.7984L363.845 79.3659C364.111 79.477 364.339 79.5325 364.528 79.5325C364.894 79.5325 365.169 79.3965 365.352 79.1244C365.535 78.8468 365.627 78.1972 365.627 77.1756V68.581Z" fill="#E50004"></path> <path d="M376.442 80.79V79.0828H378.149V80.79H376.442Z" fill="#E50004"></path> <path d="M386.491 70.0468V68.4811H388.007V70.0468C389.562 70.13 390.789 70.5992 391.688 71.4542C392.588 72.3037 393.037 73.3614 393.037 74.6272C393.037 75.8653 392.602 76.9175 391.73 77.7836C390.858 78.6497 389.617 79.1272 388.007 79.216V80.79H386.491V79.216C385.048 79.1605 383.846 78.7219 382.885 77.9002C381.925 77.0729 381.445 75.9819 381.445 74.6272C381.445 73.267 381.922 72.1788 382.877 71.3626C383.838 70.5464 385.042 70.1078 386.491 70.0468ZM388.007 71.4292V77.8252C389.051 77.7753 389.873 77.4727 390.472 76.9175C391.072 76.3623 391.372 75.5988 391.372 74.6272C391.372 73.6723 391.077 72.9172 390.489 72.362C389.9 71.8012 389.073 71.4903 388.007 71.4292ZM386.491 71.4376C385.487 71.482 384.673 71.779 384.051 72.3287C383.429 72.8783 383.119 73.6445 383.119 74.6272C383.119 75.5988 383.424 76.3623 384.035 76.9175C384.651 77.4727 385.47 77.7725 386.491 77.8169V71.4376Z" fill="#E50004"></path> <path d="M395.044 80.79V79.0828H396.751V80.79H395.044Z" fill="#E50004"></path> <path d="M116.478 46.3328H120.557L123.652 55.0069L126.77 46.3328H130.837V58.7812H128.036V50.5878L125 58.7812H122.186L119.291 50.5878V58.7812H116.478V46.3328Z" fill="#E50004"></path> <path d="M144.114 54.8193L147.396 55.3702C146.974 56.5737 146.306 57.4919 145.391 58.1248C144.485 58.75 143.348 59.0626 141.98 59.0626C139.816 59.0626 138.214 58.3554 137.174 56.9409C136.354 55.8079 135.944 54.3778 135.944 52.6508C135.944 50.5878 136.483 48.9741 137.561 47.8098C138.64 46.6376 140.003 46.0515 141.652 46.0515C143.504 46.0515 144.965 46.6649 146.036 47.8918C147.106 49.1109 147.618 50.9824 147.571 53.5065H139.319C139.343 54.4833 139.609 55.2452 140.116 55.7922C140.624 56.3314 141.257 56.601 142.015 56.601C142.531 56.601 142.965 56.4604 143.316 56.179C143.668 55.8977 143.934 55.4445 144.114 54.8193ZM144.301 51.4904C144.278 50.537 144.032 49.8142 143.563 49.3219C143.094 48.8217 142.523 48.5717 141.851 48.5717C141.132 48.5717 140.538 48.8335 140.07 49.357C139.601 49.8806 139.37 50.5917 139.378 51.4904H144.301Z" fill="#E50004"></path> <path d="M163.312 58.7812H153.887V62.0633H151.215V56.0853H152.563C153.125 55.4601 153.59 54.4833 153.958 53.1548C154.325 51.8264 154.544 49.5524 154.614 46.3328H164.66V56.0853H165.996V62.0633H163.312V58.7812ZM161.401 56.0853L161.413 49.0405H157.427C157.294 52.4789 156.747 54.8271 155.786 56.0853H161.401Z" fill="#E50004"></path> <path d="M170.942 46.3328H174.107V54.1512L179.17 46.3328H182.406V58.7812H179.241V50.8222L174.107 58.7812H170.942V46.3328Z" fill="#E50004"></path> <path d="M188.426 46.3328H191.72V56.1204H196.42V46.3328H199.714V56.1204H201.015V62.0633H198.354V58.7812H188.426V46.3328Z" fill="#E50004"></path> <path d="M205.981 46.3328H209.146V54.1512L214.209 46.3328H217.445V58.7812H214.28V50.8222L209.146 58.7812H205.981V46.3328Z" fill="#E50004"></path> <path d="M223.455 46.3328H226.749V50.8926H231.461V46.3328H234.766V58.7812H231.461V53.5534H226.749V58.7812H223.455V46.3328Z" fill="#E50004"></path> <path d="M251.701 50.0134L248.454 50.5995C248.345 49.9509 248.095 49.4625 247.704 49.1343C247.321 48.8061 246.821 48.642 246.204 48.642C245.383 48.642 244.727 48.9272 244.235 49.4977C243.75 50.0603 243.508 51.0059 243.508 52.3343C243.508 53.8113 243.754 54.8545 244.246 55.464C244.747 56.0735 245.415 56.3783 246.251 56.3783C246.876 56.3783 247.388 56.2025 247.786 55.8508C248.185 55.4914 248.466 54.8779 248.63 54.0105L251.865 54.5614C251.529 56.0462 250.885 57.1676 249.931 57.9256C248.978 58.6836 247.7 59.0626 246.098 59.0626C244.278 59.0626 242.824 58.4882 241.738 57.3395C240.66 56.1908 240.12 54.6005 240.12 52.5688C240.12 50.5136 240.663 48.9155 241.75 47.7746C242.836 46.6259 244.305 46.0515 246.157 46.0515C247.673 46.0515 248.876 46.3797 249.767 47.0361C250.666 47.6847 251.311 48.6772 251.701 50.0134Z" fill="#E50004"></path> <path d="M256.833 46.3328H260.115V51.42C260.662 51.3575 261.049 51.1895 261.276 50.916C261.503 50.6425 261.776 50.0447 262.096 49.1226C262.518 47.8957 262.979 47.1104 263.48 46.7665C263.98 46.4227 264.636 46.2508 265.449 46.2508C265.699 46.2508 266.133 46.2703 266.75 46.3094L266.762 48.4896C265.894 48.4896 265.339 48.5717 265.097 48.7358C264.855 48.9077 264.593 49.4195 264.312 50.2713C263.929 51.42 263.378 52.1272 262.659 52.3929C263.698 52.6821 264.578 53.5846 265.296 55.1006C265.336 55.1788 265.379 55.2608 265.425 55.3468L267.266 58.7812H263.726L262.085 55.1827C261.749 54.456 261.456 53.991 261.206 53.7878C260.963 53.5768 260.6 53.4713 260.115 53.4713V58.7812H256.833V46.3328Z" fill="#E50004"></path> <path d="M271.66 46.3328H274.824V54.1512L279.888 46.3328H283.123V58.7812H279.959V50.8222L274.824 58.7812H271.66V46.3328Z" fill="#E50004"></path> <path d="M289.179 46.3328H292.344V54.1512L297.408 46.3328H300.643V58.7812H297.478V50.8222L292.344 58.7812H289.179V46.3328ZM297.068 41.2808H298.674C298.58 42.3435 298.205 43.1797 297.548 43.7892C296.9 44.3909 296.056 44.6918 295.017 44.6918C293.977 44.6918 293.129 44.3909 292.473 43.7892C291.824 43.1797 291.453 42.3435 291.359 41.2808H292.965C293.02 41.8356 293.215 42.2576 293.551 42.5467C293.887 42.828 294.376 42.9687 295.017 42.9687C295.657 42.9687 296.146 42.828 296.482 42.5467C296.818 42.2576 297.013 41.8356 297.068 41.2808Z" fill="#E50004"></path> <path d="M317.668 46.3328H320.962V56.1204H325.663V46.3328H328.956V56.1204H330.257V62.0633H327.597V58.7812H317.668V46.3328Z" fill="#E50004"></path> <path d="M342.514 54.8193L345.796 55.3702C345.374 56.5737 344.706 57.4919 343.792 58.1248C342.885 58.75 341.748 59.0626 340.381 59.0626C338.216 59.0626 336.614 58.3554 335.575 56.9409C334.754 55.8079 334.344 54.3778 334.344 52.6508C334.344 50.5878 334.883 48.9741 335.962 47.8098C337.04 46.6376 338.404 46.0515 340.052 46.0515C341.904 46.0515 343.366 46.6649 344.436 47.8918C345.507 49.1109 346.019 50.9824 345.972 53.5065H337.72C337.743 54.4833 338.009 55.2452 338.517 55.7922C339.025 56.3314 339.658 56.601 340.416 56.601C340.932 56.601 341.365 56.4604 341.717 56.179C342.069 55.8977 342.334 55.4445 342.514 54.8193ZM342.701 51.4904C342.678 50.537 342.432 49.8142 341.963 49.3219C341.494 48.8217 340.924 48.5717 340.252 48.5717C339.533 48.5717 338.939 48.8335 338.47 49.357C338.001 49.8806 337.771 50.5917 337.778 51.4904H342.701Z" fill="#E50004"></path> <path d="M351.291 46.3328H354.585V50.8926H359.297V46.3328H362.603V58.7812H359.297V53.5534H354.585V58.7812H351.291V46.3328Z" fill="#E50004"></path> <path d="M367.207 46.3328H378.472V48.9936H374.486V58.7812H371.192V48.9936H367.207V46.3328Z" fill="#E50004"></path> <path d="M383.109 46.3328H386.18V48.1614C386.578 47.5363 387.118 47.0283 387.797 46.6376C388.477 46.2469 389.231 46.0515 390.06 46.0515C391.505 46.0515 392.732 46.6181 393.74 47.7511C394.748 48.8842 395.252 50.4628 395.252 52.4867C395.252 54.5654 394.745 56.1829 393.729 57.3395C392.713 58.4882 391.482 59.0626 390.036 59.0626C389.349 59.0626 388.723 58.9258 388.161 58.6523C387.606 58.3788 387.02 57.9099 386.403 57.2457V63.5168H383.109V46.3328ZM386.367 52.346C386.367 53.7448 386.645 54.7802 387.2 55.4523C387.754 56.1165 388.43 56.4486 389.228 56.4486C389.993 56.4486 390.63 56.1439 391.138 55.5343C391.646 54.917 391.9 53.9089 391.9 52.5102C391.9 51.2051 391.638 50.2361 391.115 49.6032C390.591 48.9702 389.943 48.6537 389.169 48.6537C388.364 48.6537 387.696 48.9663 387.165 49.5915C386.633 50.2088 386.367 51.127 386.367 52.346Z" fill="#E50004"></path> <defs> <linearGradient id="paint0_linear_524_1781" x1="65.7952" y1="-7.3518" x2="17.3811" y2="85.3449" gradientUnits="userSpaceOnUse"> <stop stop-color="#FF1212"></stop> <stop offset="0.195" stop-color="#F91414"></stop> <stop offset="0.4447" stop-color="#EA1A18"></stop> <stop offset="0.7227" stop-color="#CF2320"></stop> <stop offset="1" stop-color="#AE2F29"></stop> </linearGradient> </defs> </svg> 