<?xml version="1.0" encoding="UTF-8"?> <svg xmlns="http://www.w3.org/2000/svg" width="284" height="20" viewBox="0 0 284 20" fill="none"> <path d="M10.946 19.312C9.05667 19.312 7.34933 18.9047 5.824 18.09C4.316 17.2753 3.12867 16.1573 2.262 14.736C1.41267 13.2973 0.988 11.6853 0.988 9.9C0.988 8.11467 1.41267 6.51133 2.262 5.09C3.12867 3.65133 4.316 2.52467 5.824 1.71C7.34933 0.895333 9.05667 0.488 10.946 0.488C12.8353 0.488 14.534 0.895333 16.042 1.71C17.55 2.52467 18.7373 3.65133 19.604 5.09C20.4707 6.51133 20.904 8.11467 20.904 9.9C20.904 11.6853 20.4707 13.2973 19.604 14.736C18.7373 16.1573 17.55 17.2753 16.042 18.09C14.534 18.9047 12.8353 19.312 10.946 19.312ZM10.946 15.724C12.0207 15.724 12.9913 15.4813 13.858 14.996C14.7247 14.4933 15.4007 13.8 15.886 12.916C16.3887 12.032 16.64 11.0267 16.64 9.9C16.64 8.77333 16.3887 7.768 15.886 6.884C15.4007 6 14.7247 5.31533 13.858 4.83C12.9913 4.32733 12.0207 4.076 10.946 4.076C9.87133 4.076 8.90067 4.32733 8.034 4.83C7.16733 5.31533 6.48267 6 5.98 6.884C5.49467 7.768 5.252 8.77333 5.252 9.9C5.252 11.0267 5.49467 12.032 5.98 12.916C6.48267 13.8 7.16733 14.4933 8.034 14.996C8.90067 15.4813 9.87133 15.724 10.946 15.724ZM41.158 11.668H38.246V19H34.06V0.799999H38.246V8.158H41.262L46.046 0.799999H50.492L44.538 9.588L50.674 19H45.89L41.158 11.668ZM53.9472 0.799999H58.1332V12.656L66.8172 0.799999H70.7692V19H66.6092V7.17L57.9252 19H53.9472V0.799999ZM93.2927 0.799999V19H89.0807V11.538H80.8127V19H76.6007V0.799999H80.8127V7.976H89.0807V0.799999H93.2927ZM113.245 15.62V19H99.1526V0.799999H112.907V4.18H103.339V8.132H111.789V11.408H103.339V15.62H113.245ZM128.295 9.51C129.352 9.874 130.175 10.446 130.765 11.226C131.371 11.9887 131.675 12.8813 131.675 13.904C131.675 15.0133 131.311 15.9753 130.583 16.79C129.855 17.6047 128.867 18.2287 127.619 18.662C126.388 19.0953 125.036 19.312 123.563 19.312C122.315 19.312 121.067 19.156 119.819 18.844C118.588 18.532 117.418 18.0553 116.309 17.414L117.609 14.398C118.406 14.8833 119.281 15.256 120.235 15.516C121.205 15.7587 122.15 15.88 123.069 15.88C124.317 15.88 125.348 15.6547 126.163 15.204C126.995 14.7533 127.411 14.1207 127.411 13.306C127.411 12.63 127.125 12.1187 126.553 11.772C125.998 11.4253 125.235 11.252 124.265 11.252H119.819V8.08H123.953C124.802 8.08 125.461 7.90667 125.929 7.56C126.414 7.21333 126.657 6.73667 126.657 6.13C126.657 5.41933 126.31 4.86467 125.617 4.466C124.941 4.06733 124.065 3.868 122.991 3.868C122.193 3.868 121.37 3.98067 120.521 4.206C119.671 4.414 118.865 4.73467 118.103 5.168L116.829 1.892C118.753 0.903999 120.833 0.409999 123.069 0.409999C124.49 0.409999 125.799 0.617999 126.995 1.034C128.191 1.45 129.144 2.05667 129.855 2.854C130.565 3.65133 130.921 4.57867 130.921 5.636C130.921 6.50267 130.687 7.274 130.219 7.95C129.751 8.626 129.109 9.146 128.295 9.51ZM136.309 0.799999H140.495V12.656L149.179 0.799999H153.131V19H148.971V7.17L140.287 19H136.309V0.799999ZM167.647 19.312C165.757 19.312 164.05 18.9047 162.525 18.09C161.017 17.2753 159.829 16.1573 158.963 14.736C158.113 13.2973 157.689 11.6853 157.689 9.9C157.689 8.11467 158.113 6.51133 158.963 5.09C159.829 3.65133 161.017 2.52467 162.525 1.71C164.05 0.895333 165.757 0.488 167.647 0.488C169.536 0.488 171.235 0.895333 172.743 1.71C174.251 2.52467 175.438 3.65133 176.305 5.09C177.171 6.51133 177.605 8.11467 177.605 9.9C177.605 11.6853 177.171 13.2973 176.305 14.736C175.438 16.1573 174.251 17.2753 172.743 18.09C171.235 18.9047 169.536 19.312 167.647 19.312ZM167.647 15.724C168.721 15.724 169.692 15.4813 170.559 14.996C171.425 14.4933 172.101 13.8 172.587 12.916C173.089 12.032 173.341 11.0267 173.341 9.9C173.341 8.77333 173.089 7.768 172.587 6.884C172.101 6 171.425 5.31533 170.559 4.83C169.692 4.32733 168.721 4.076 167.647 4.076C166.572 4.076 165.601 4.32733 164.735 4.83C163.868 5.31533 163.183 6 162.681 6.884C162.195 7.768 161.953 8.77333 161.953 9.9C161.953 11.0267 162.195 12.032 162.681 12.916C163.183 13.8 163.868 14.4933 164.735 14.996C165.601 15.4813 166.572 15.724 167.647 15.724ZM197.866 0.799999V19H193.706V4.232H187.466L187.336 8.028C187.249 10.6107 187.041 12.708 186.712 14.32C186.382 15.9147 185.828 17.1453 185.048 18.012C184.285 18.8613 183.21 19.286 181.824 19.286C181.252 19.286 180.558 19.1907 179.744 19L180.004 15.438C180.229 15.5073 180.48 15.542 180.758 15.542C181.763 15.542 182.465 14.9527 182.864 13.774C183.262 12.578 183.514 10.7147 183.618 8.184L183.878 0.799999H197.866ZM212.395 19.312C210.506 19.312 208.799 18.9047 207.273 18.09C205.765 17.2753 204.578 16.1573 203.711 14.736C202.862 13.2973 202.437 11.6853 202.437 9.9C202.437 8.11467 202.862 6.51133 203.711 5.09C204.578 3.65133 205.765 2.52467 207.273 1.71C208.799 0.895333 210.506 0.488 212.395 0.488C214.285 0.488 215.983 0.895333 217.491 1.71C218.999 2.52467 220.187 3.65133 221.053 5.09C221.92 6.51133 222.353 8.11467 222.353 9.9C222.353 11.6853 221.92 13.2973 221.053 14.736C220.187 16.1573 218.999 17.2753 217.491 18.09C215.983 18.9047 214.285 19.312 212.395 19.312ZM212.395 15.724C213.47 15.724 214.441 15.4813 215.307 14.996C216.174 14.4933 216.85 13.8 217.335 12.916C217.838 12.032 218.089 11.0267 218.089 9.9C218.089 8.77333 217.838 7.768 217.335 6.884C216.85 6 216.174 5.31533 215.307 4.83C214.441 4.32733 213.47 4.076 212.395 4.076C211.321 4.076 210.35 4.32733 209.483 4.83C208.617 5.31533 207.932 6 207.429 6.884C206.944 7.768 206.701 8.77333 206.701 9.9C206.701 11.0267 206.944 12.032 207.429 12.916C207.932 13.8 208.617 14.4933 209.483 14.996C210.35 15.4813 211.321 15.724 212.395 15.724ZM239.716 4.232H231.058L231.084 19H226.898V0.799999H239.742L239.716 4.232ZM243.61 0.799999H247.796V12.656L256.48 0.799999H260.432V19H256.272V7.17L247.588 19H243.61V0.799999ZM266.264 0.799999H270.45V12.656L279.134 0.799999H283.086V19H278.926V7.17L270.242 19H266.264V0.799999Z" fill="white"></path> </svg> 