<?xml version="1.0" encoding="UTF-8"?> <svg xmlns="http://www.w3.org/2000/svg" width="1059" height="202" viewBox="0 0 1059 202" fill="none"> <path fill-rule="evenodd" clip-rule="evenodd" d="M448 78V58C500.975 58 553.949 58 607 58V78C553.949 78 500.978 78 448 78Z" fill="white"></path> <path fill-rule="evenodd" clip-rule="evenodd" d="M927.084 115.559H1015.92C1045.62 115.559 1045.62 20.4369 1015.92 20.4369H927.084C897.313 20.4369 897.313 115.559 927.084 115.559ZM927.084 136C869.641 136 869.637 0 927.084 0H1015.92C1073.36 0 1073.36 136 1015.92 136H927.084Z" fill="white"></path> <path fill-rule="evenodd" clip-rule="evenodd" d="M448 136V115C500.975 115 553.949 115 607 115V136C553.949 136 500.978 136 448 136Z" fill="white"></path> <path fill-rule="evenodd" clip-rule="evenodd" d="M448 22V1C500.975 1 553.949 1 607 1V21.9961C553.949 22 500.978 22 448 22Z" fill="white"></path> <path fill-rule="evenodd" clip-rule="evenodd" d="M804 1H877V21.2974H850.795V115.714H877V136H804V115.714H830.205V21.2974H804V1Z" fill="white"></path> <path fill-rule="evenodd" clip-rule="evenodd" d="M178 1H251V21.2974H224.794V115.714H251V136H178V115.714H204.206V21.2974H178V1Z" fill="white"></path> <path fill-rule="evenodd" clip-rule="evenodd" d="M626.022 21.2974V1H774.726C784.852 1 788.717 13.9048 780.554 19.5004L664.341 115.714H785V136L636.292 135.932C626.819 135.932 622.301 124.244 629.659 118.152L746.601 21.2974H626.022Z" fill="white"></path> <path fill-rule="evenodd" clip-rule="evenodd" d="M290.549 136H270V11.1866C270 2.00844 281.224 -2.29064 287.561 4.08973L408.451 104.166V1H429L428.928 125.889C428.928 134.279 418.798 139.082 412.092 133.559L290.553 32.8336L290.549 136Z" fill="white"></path> <path fill-rule="evenodd" clip-rule="evenodd" d="M97.7162 58.3567C122.055 58.3567 138.451 33.1227 138.451 11.1831V1H159V11.1831C159 33.1227 147.852 55.7787 129.417 68.5398C147.852 81.2289 159 103.885 159 125.889V136H138.451V125.889C138.451 103.881 122.055 78.6471 97.7162 78.6471L20.4773 78.5713V135.932H0C0 90.976 0 46.0278 0 1.07205H20.4773V58.4287L97.7162 58.3567Z" fill="white"></path> <path d="M79.024 195.208C77.1867 195.208 75.5313 194.809 74.058 194.012C72.5847 193.197 71.4233 192.079 70.574 190.658C69.742 189.237 69.326 187.651 69.326 185.9C69.326 184.149 69.742 182.563 70.574 181.142C71.4233 179.721 72.5847 178.611 74.058 177.814C75.5313 176.999 77.1867 176.592 79.024 176.592C80.844 176.592 82.4907 176.999 83.964 177.814C85.4373 178.611 86.59 179.721 87.422 181.142C88.254 182.546 88.67 184.132 88.67 185.9C88.67 187.668 88.254 189.263 87.422 190.684C86.59 192.088 85.4373 193.197 83.964 194.012C82.4907 194.809 80.844 195.208 79.024 195.208ZM79.024 192.894C80.3587 192.894 81.5547 192.591 82.612 191.984C83.6867 191.377 84.5273 190.545 85.134 189.488C85.758 188.413 86.07 187.217 86.07 185.9C86.07 184.583 85.758 183.395 85.134 182.338C84.5273 181.263 83.6867 180.423 82.612 179.816C81.5547 179.209 80.3587 178.906 79.024 178.906C77.6893 178.906 76.476 179.209 75.384 179.816C74.3093 180.423 73.46 181.263 72.836 182.338C72.2293 183.395 71.926 184.583 71.926 185.9C71.926 187.217 72.2293 188.413 72.836 189.488C73.46 190.545 74.3093 191.377 75.384 191.984C76.476 192.591 77.6893 192.894 79.024 192.894ZM119.329 195L119.303 181.74L112.725 192.79H111.529L104.951 181.818V195H102.455V176.8H104.587L112.179 189.592L119.667 176.8H121.799L121.825 195H119.329ZM141.999 192.738V195H128.791V176.8H141.635V179.062H131.391V184.652H140.517V186.862H131.391V192.738H141.999ZM164.724 192.738V198.978H162.306V195H147.33L147.304 198.978H144.886L144.912 192.738H145.796C146.94 192.669 147.746 191.767 148.214 190.034C148.682 188.283 148.968 185.822 149.072 182.65L149.254 176.8H162.046V192.738H164.724ZM151.36 182.884C151.273 185.449 151.065 187.573 150.736 189.254C150.424 190.935 149.912 192.097 149.202 192.738H159.472V179.062H151.49L151.36 182.884ZM169.578 176.8H172.152V190.84L182.916 176.8H185.308V195H182.76V180.986L171.97 195H169.578V176.8ZM210.378 192.738V199.134H207.96V195H192.282V176.8H194.856V192.738H204.996V176.8H207.57V192.738H210.378ZM215.139 176.8H217.713V190.84L228.477 176.8H230.869V195H228.321V180.986L217.531 195H215.139V176.8ZM253.495 176.8V195H250.895V186.888H240.443V195H237.843V176.8H240.443V184.626H250.895V176.8H253.495ZM268.609 195.208C266.789 195.208 265.143 194.809 263.669 194.012C262.213 193.197 261.069 192.088 260.237 190.684C259.405 189.263 258.989 187.668 258.989 185.9C258.989 184.132 259.405 182.546 260.237 181.142C261.069 179.721 262.222 178.611 263.695 177.814C265.169 176.999 266.815 176.592 268.635 176.592C270.057 176.592 271.357 176.835 272.535 177.32C273.714 177.788 274.719 178.49 275.551 179.426L273.861 181.064C272.492 179.625 270.785 178.906 268.739 178.906C267.387 178.906 266.165 179.209 265.073 179.816C263.981 180.423 263.123 181.263 262.499 182.338C261.893 183.395 261.589 184.583 261.589 185.9C261.589 187.217 261.893 188.413 262.499 189.488C263.123 190.545 263.981 191.377 265.073 191.984C266.165 192.591 267.387 192.894 268.739 192.894C270.767 192.894 272.475 192.166 273.861 190.71L275.551 192.348C274.719 193.284 273.705 193.995 272.509 194.48C271.331 194.965 270.031 195.208 268.609 195.208ZM286.778 186.992H282.982V195H280.434V176.8H282.982V184.704H286.83L292.55 176.8H295.332L288.832 185.614L295.644 195H292.68L286.778 186.992ZM307.748 195.208C305.91 195.208 304.255 194.809 302.782 194.012C301.308 193.197 300.147 192.079 299.298 190.658C298.466 189.237 298.05 187.651 298.05 185.9C298.05 184.149 298.466 182.563 299.298 181.142C300.147 179.721 301.308 178.611 302.782 177.814C304.255 176.999 305.91 176.592 307.748 176.592C309.568 176.592 311.214 176.999 312.688 177.814C314.161 178.611 315.314 179.721 316.146 181.142C316.978 182.546 317.394 184.132 317.394 185.9C317.394 187.668 316.978 189.263 316.146 190.684C315.314 192.088 314.161 193.197 312.688 194.012C311.214 194.809 309.568 195.208 307.748 195.208ZM307.748 192.894C309.082 192.894 310.278 192.591 311.336 191.984C312.41 191.377 313.251 190.545 313.858 189.488C314.482 188.413 314.794 187.217 314.794 185.9C314.794 184.583 314.482 183.395 313.858 182.338C313.251 181.263 312.41 180.423 311.336 179.816C310.278 179.209 309.082 178.906 307.748 178.906C306.413 178.906 305.2 179.209 304.108 179.816C303.033 180.423 302.184 181.263 301.56 182.338C300.953 183.395 300.65 184.583 300.65 185.9C300.65 187.217 300.953 188.413 301.56 189.488C302.184 190.545 303.033 191.377 304.108 191.984C305.2 192.591 306.413 192.894 307.748 192.894ZM339.771 195L339.745 181.74L333.167 192.79H331.971L325.393 181.818V195H322.897V176.8H325.029L332.621 189.592L340.109 176.8H342.241L342.267 195H339.771ZM375.61 192.738V199.134H373.192V195H357.514V176.8H360.088V192.738H370.228V176.8H372.802V192.738H375.61ZM393.579 192.738V195H380.371V176.8H393.215V179.062H382.971V184.652H392.097V186.862H382.971V192.738H393.579ZM414.614 176.8V195H412.014V186.888H401.562V195H398.962V176.8H401.562V184.626H412.014V176.8H414.614ZM434.096 179.062H427.856V195H425.308V179.062H419.094V176.8H434.096V179.062ZM445.654 176.8C448.012 176.8 449.866 177.363 451.218 178.49C452.57 179.617 453.246 181.168 453.246 183.144C453.246 185.12 452.57 186.671 451.218 187.798C449.866 188.925 448.012 189.488 445.654 189.488H441.156V195H438.556V176.8H445.654ZM445.576 187.226C447.223 187.226 448.48 186.879 449.346 186.186C450.213 185.475 450.646 184.461 450.646 183.144C450.646 181.827 450.213 180.821 449.346 180.128C448.48 179.417 447.223 179.062 445.576 179.062H441.156V187.226H445.576ZM471.371 192.738V195H458.163V176.8H471.007V179.062H460.763V184.652H469.889V186.862H460.763V192.738H471.371ZM500.714 176.8V195H498.166V179.062H487.61V195H485.036V176.8H500.714ZM514.788 176.8C517.145 176.8 519 177.363 520.352 178.49C521.704 179.617 522.38 181.168 522.38 183.144C522.38 185.12 521.704 186.671 520.352 187.798C519 188.925 517.145 189.488 514.788 189.488H510.29V195H507.69V176.8H514.788ZM514.71 187.226C516.357 187.226 517.613 186.879 518.48 186.186C519.347 185.475 519.78 184.461 519.78 183.144C519.78 181.827 519.347 180.821 518.48 180.128C517.613 179.417 516.357 179.062 514.71 179.062H510.29V187.226H514.71ZM535.74 195.208C533.903 195.208 532.248 194.809 530.774 194.012C529.301 193.197 528.14 192.079 527.29 190.658C526.458 189.237 526.042 187.651 526.042 185.9C526.042 184.149 526.458 182.563 527.29 181.142C528.14 179.721 529.301 178.611 530.774 177.814C532.248 176.999 533.903 176.592 535.74 176.592C537.56 176.592 539.207 176.999 540.68 177.814C542.154 178.611 543.306 179.721 544.138 181.142C544.97 182.546 545.386 184.132 545.386 185.9C545.386 187.668 544.97 189.263 544.138 190.684C543.306 192.088 542.154 193.197 540.68 194.012C539.207 194.809 537.56 195.208 535.74 195.208ZM535.74 192.894C537.075 192.894 538.271 192.591 539.328 191.984C540.403 191.377 541.244 190.545 541.85 189.488C542.474 188.413 542.786 187.217 542.786 185.9C542.786 184.583 542.474 183.395 541.85 182.338C541.244 181.263 540.403 180.423 539.328 179.816C538.271 179.209 537.075 178.906 535.74 178.906C534.406 178.906 533.192 179.209 532.1 179.816C531.026 180.423 530.176 181.263 529.552 182.338C528.946 183.395 528.642 184.583 528.642 185.9C528.642 187.217 528.946 188.413 529.552 189.488C530.176 190.545 531.026 191.377 532.1 191.984C533.192 192.591 534.406 192.894 535.74 192.894ZM570.961 185.874C570.961 188.283 570.121 190.173 568.439 191.542C566.758 192.911 564.383 193.648 561.315 193.752V195.676H558.897V193.752C555.829 193.631 553.446 192.885 551.747 191.516C550.066 190.147 549.225 188.266 549.225 185.874C549.225 183.465 550.066 181.575 551.747 180.206C553.446 178.837 555.829 178.091 558.897 177.97V176.124H561.315V177.97C564.366 178.091 566.732 178.845 568.413 180.232C570.112 181.601 570.961 183.482 570.961 185.874ZM561.315 191.724C563.638 191.585 565.406 191.022 566.619 190.034C567.85 189.029 568.465 187.633 568.465 185.848C568.465 184.097 567.841 182.728 566.593 181.74C565.363 180.735 563.603 180.163 561.315 180.024V191.724ZM551.747 185.874C551.747 187.642 552.363 189.029 553.593 190.034C554.841 191.022 556.609 191.585 558.897 191.724V180.024C556.575 180.163 554.798 180.726 553.567 181.714C552.354 182.702 551.747 184.089 551.747 185.874ZM589.468 192.738V195H576.26V176.8H589.104V179.062H578.86V184.652H587.986V186.862H578.86V192.738H589.468ZM602.913 195.208C601.093 195.208 599.446 194.809 597.973 194.012C596.517 193.197 595.373 192.088 594.541 190.684C593.709 189.263 593.293 187.668 593.293 185.9C593.293 184.132 593.709 182.546 594.541 181.142C595.373 179.721 596.525 178.611 597.999 177.814C599.472 176.999 601.119 176.592 602.939 176.592C604.36 176.592 605.66 176.835 606.839 177.32C608.017 177.788 609.023 178.49 609.855 179.426L608.165 181.064C606.795 179.625 605.088 178.906 603.043 178.906C601.691 178.906 600.469 179.209 599.377 179.816C598.285 180.423 597.427 181.263 596.803 182.338C596.196 183.395 595.893 184.583 595.893 185.9C595.893 187.217 596.196 188.413 596.803 189.488C597.427 190.545 598.285 191.377 599.377 191.984C600.469 192.591 601.691 192.894 603.043 192.894C605.071 192.894 606.778 192.166 608.165 190.71L609.855 192.348C609.023 193.284 608.009 193.995 606.813 194.48C605.634 194.965 604.334 195.208 602.913 195.208ZM622.494 195.208C620.674 195.208 619.027 194.809 617.554 194.012C616.098 193.197 614.954 192.088 614.122 190.684C613.29 189.263 612.874 187.668 612.874 185.9C612.874 184.132 613.29 182.546 614.122 181.142C614.954 179.721 616.107 178.611 617.58 177.814C619.053 176.999 620.7 176.592 622.52 176.592C623.941 176.592 625.241 176.835 626.42 177.32C627.599 177.788 628.604 178.49 629.436 179.426L627.746 181.064C626.377 179.625 624.669 178.906 622.624 178.906C621.272 178.906 620.05 179.209 618.958 179.816C617.866 180.423 617.008 181.263 616.384 182.338C615.777 183.395 615.474 184.583 615.474 185.9C615.474 187.217 615.777 188.413 616.384 189.488C617.008 190.545 617.866 191.377 618.958 191.984C620.05 192.591 621.272 192.894 622.624 192.894C624.652 192.894 626.359 192.166 627.746 190.71L629.436 192.348C628.604 193.284 627.59 193.995 626.394 194.48C625.215 194.965 623.915 195.208 622.494 195.208ZM642.127 195.208C640.29 195.208 638.634 194.809 637.161 194.012C635.688 193.197 634.526 192.079 633.677 190.658C632.845 189.237 632.429 187.651 632.429 185.9C632.429 184.149 632.845 182.563 633.677 181.142C634.526 179.721 635.688 178.611 637.161 177.814C638.634 176.999 640.29 176.592 642.127 176.592C643.947 176.592 645.594 176.999 647.067 177.814C648.54 178.611 649.693 179.721 650.525 181.142C651.357 182.546 651.773 184.132 651.773 185.9C651.773 187.668 651.357 189.263 650.525 190.684C649.693 192.088 648.54 193.197 647.067 194.012C645.594 194.809 643.947 195.208 642.127 195.208ZM642.127 192.894C643.462 192.894 644.658 192.591 645.715 191.984C646.79 191.377 647.63 190.545 648.237 189.488C648.861 188.413 649.173 187.217 649.173 185.9C649.173 184.583 648.861 183.395 648.237 182.338C647.63 181.263 646.79 180.423 645.715 179.816C644.658 179.209 643.462 178.906 642.127 178.906C640.792 178.906 639.579 179.209 638.487 179.816C637.412 180.423 636.563 181.263 635.939 182.338C635.332 183.395 635.029 184.583 635.029 185.9C635.029 187.217 635.332 188.413 635.939 189.488C636.563 190.545 637.412 191.377 638.487 191.984C639.579 192.591 640.792 192.894 642.127 192.894ZM664.374 176.8C666.732 176.8 668.586 177.363 669.938 178.49C671.29 179.617 671.966 181.168 671.966 183.144C671.966 185.12 671.29 186.671 669.938 187.798C668.586 188.925 666.732 189.488 664.374 189.488H659.876V195H657.276V176.8H664.374ZM664.296 187.226C665.943 187.226 667.2 186.879 668.066 186.186C668.933 185.475 669.366 184.461 669.366 183.144C669.366 181.827 668.933 180.821 668.066 180.128C667.2 179.417 665.943 179.062 664.296 179.062H659.876V187.226H664.296ZM687.799 190.45H678.127L676.125 195H673.447L681.689 176.8H684.263L692.531 195H689.801L687.799 190.45ZM686.889 188.37L682.963 179.452L679.037 188.37H686.889ZM728.409 176.8V195H725.861V179.062H717.801L717.619 184.392C717.532 186.905 717.324 188.942 716.995 190.502C716.683 192.062 716.18 193.241 715.487 194.038C714.793 194.818 713.857 195.208 712.679 195.208C712.141 195.208 711.595 195.139 711.041 195L711.223 192.686C711.5 192.755 711.777 192.79 712.055 192.79C712.8 192.79 713.398 192.495 713.849 191.906C714.299 191.299 714.637 190.398 714.863 189.202C715.088 188.006 715.235 186.429 715.305 184.47L715.591 176.8H728.409ZM735.508 195.156C735.022 195.156 734.606 194.991 734.26 194.662C733.913 194.315 733.74 193.882 733.74 193.362C733.74 192.859 733.913 192.443 734.26 192.114C734.606 191.767 735.022 191.594 735.508 191.594C735.993 191.594 736.4 191.759 736.73 192.088C737.059 192.417 737.224 192.842 737.224 193.362C737.224 193.882 737.05 194.315 736.704 194.662C736.374 194.991 735.976 195.156 735.508 195.156ZM762.133 185.874C762.133 188.283 761.292 190.173 759.611 191.542C757.929 192.911 755.555 193.648 752.487 193.752V195.676H750.069V193.752C747.001 193.631 744.617 192.885 742.919 191.516C741.237 190.147 740.397 188.266 740.397 185.874C740.397 183.465 741.237 181.575 742.919 180.206C744.617 178.837 747.001 178.091 750.069 177.97V176.124H752.487V177.97C755.537 178.091 757.903 178.845 759.585 180.232C761.283 181.601 762.133 183.482 762.133 185.874ZM752.487 191.724C754.809 191.585 756.577 191.022 757.791 190.034C759.021 189.029 759.637 187.633 759.637 185.848C759.637 184.097 759.013 182.728 757.765 181.74C756.534 180.735 754.775 180.163 752.487 180.024V191.724ZM742.919 185.874C742.919 187.642 743.534 189.029 744.765 190.034C746.013 191.022 747.781 191.585 750.069 191.724V180.024C747.746 180.163 745.969 180.726 744.739 181.714C743.525 182.702 742.919 184.089 742.919 185.874ZM767.053 195.156C766.568 195.156 766.152 194.991 765.805 194.662C765.458 194.315 765.285 193.882 765.285 193.362C765.285 192.859 765.458 192.443 765.805 192.114C766.152 191.767 766.568 191.594 767.053 191.594C767.538 191.594 767.946 191.759 768.275 192.088C768.604 192.417 768.769 192.842 768.769 193.362C768.769 193.882 768.596 194.315 768.249 194.662C767.92 194.991 767.521 195.156 767.053 195.156ZM793.732 185.562C794.963 185.857 795.89 186.385 796.514 187.148C797.155 187.893 797.476 188.855 797.476 190.034C797.476 191.611 796.895 192.833 795.734 193.7C794.59 194.567 792.917 195 790.716 195H782.396V176.8H790.222C792.215 176.8 793.767 177.207 794.876 178.022C796.003 178.819 796.566 179.972 796.566 181.48C796.566 182.468 796.315 183.309 795.812 184.002C795.327 184.695 794.633 185.215 793.732 185.562ZM784.97 184.808H790.04C791.305 184.808 792.267 184.557 792.926 184.054C793.602 183.551 793.94 182.815 793.94 181.844C793.94 180.873 793.602 180.137 792.926 179.634C792.25 179.114 791.288 178.854 790.04 178.854H784.97V184.808ZM790.664 192.946C793.455 192.946 794.85 191.906 794.85 189.826C794.85 188.786 794.495 188.023 793.784 187.538C793.091 187.035 792.051 186.784 790.664 186.784H784.97V192.946H790.664ZM814.95 190.45H805.278L803.276 195H800.598L808.84 176.8H811.414L819.682 195H816.952L814.95 190.45ZM814.04 188.37L810.114 179.452L806.188 188.37H814.04ZM832.007 195.208C830.187 195.208 828.54 194.809 827.067 194.012C825.611 193.197 824.467 192.088 823.635 190.684C822.803 189.263 822.387 187.668 822.387 185.9C822.387 184.132 822.803 182.546 823.635 181.142C824.467 179.721 825.62 178.611 827.093 177.814C828.566 176.999 830.213 176.592 832.033 176.592C833.454 176.592 834.754 176.835 835.933 177.32C837.112 177.788 838.117 178.49 838.949 179.426L837.259 181.064C835.89 179.625 834.182 178.906 832.137 178.906C830.785 178.906 829.563 179.209 828.471 179.816C827.379 180.423 826.521 181.263 825.897 182.338C825.29 183.395 824.987 184.583 824.987 185.9C824.987 187.217 825.29 188.413 825.897 189.488C826.521 190.545 827.379 191.377 828.471 191.984C829.563 192.591 830.785 192.894 832.137 192.894C834.165 192.894 835.872 192.166 837.259 190.71L838.949 192.348C838.117 193.284 837.103 193.995 835.907 194.48C834.728 194.965 833.428 195.208 832.007 195.208ZM843.831 176.8H846.405V190.84L857.169 176.8H859.561V195H857.013V180.986L846.223 195H843.831V176.8ZM881.179 176.8V195H878.631V179.062H870.571L870.389 184.392C870.302 186.905 870.094 188.942 869.765 190.502C869.453 192.062 868.95 193.241 868.257 194.038C867.564 194.818 866.628 195.208 865.449 195.208C864.912 195.208 864.366 195.139 863.811 195L863.993 192.686C864.27 192.755 864.548 192.79 864.825 192.79C865.57 192.79 866.168 192.495 866.619 191.906C867.07 191.299 867.408 190.398 867.633 189.202C867.858 188.006 868.006 186.429 868.075 184.47L868.361 176.8H881.179ZM896.13 183.144C898.297 183.144 899.952 183.629 901.096 184.6C902.257 185.571 902.838 187.001 902.838 188.89C902.838 190.883 902.214 192.4 900.966 193.44C899.735 194.48 897.967 195 895.662 195H888.148V176.8H890.722V183.144H896.13ZM895.558 192.946C897.066 192.946 898.219 192.608 899.016 191.932C899.831 191.239 900.238 190.242 900.238 188.942C900.238 186.446 898.678 185.198 895.558 185.198H890.722V192.946H895.558ZM921.191 192.738V195H907.983V176.8H920.827V179.062H910.583V184.652H919.709V186.862H910.583V192.738H921.191ZM937.91 185.562C939.141 185.857 940.068 186.385 940.692 187.148C941.334 187.893 941.654 188.855 941.654 190.034C941.654 191.611 941.074 192.833 939.912 193.7C938.768 194.567 937.096 195 934.894 195H926.574V176.8H934.4C936.394 176.8 937.945 177.207 939.054 178.022C940.181 178.819 940.744 179.972 940.744 181.48C940.744 182.468 940.493 183.309 939.99 184.002C939.505 184.695 938.812 185.215 937.91 185.562ZM929.148 184.808H934.218C935.484 184.808 936.446 184.557 937.104 184.054C937.78 183.551 938.118 182.815 938.118 181.844C938.118 180.873 937.78 180.137 937.104 179.634C936.428 179.114 935.466 178.854 934.218 178.854H929.148V184.808ZM934.842 192.946C937.633 192.946 939.028 191.906 939.028 189.826C939.028 188.786 938.673 188.023 937.962 187.538C937.269 187.035 936.229 186.784 934.842 186.784H929.148V192.946H934.842ZM955.488 195.208C953.651 195.208 951.995 194.809 950.522 194.012C949.049 193.197 947.887 192.079 947.038 190.658C946.206 189.237 945.79 187.651 945.79 185.9C945.79 184.149 946.206 182.563 947.038 181.142C947.887 179.721 949.049 178.611 950.522 177.814C951.995 176.999 953.651 176.592 955.488 176.592C957.308 176.592 958.955 176.999 960.428 177.814C961.901 178.611 963.054 179.721 963.886 181.142C964.718 182.546 965.134 184.132 965.134 185.9C965.134 187.668 964.718 189.263 963.886 190.684C963.054 192.088 961.901 193.197 960.428 194.012C958.955 194.809 957.308 195.208 955.488 195.208ZM955.488 192.894C956.823 192.894 958.019 192.591 959.076 191.984C960.151 191.377 960.991 190.545 961.598 189.488C962.222 188.413 962.534 187.217 962.534 185.9C962.534 184.583 962.222 183.395 961.598 182.338C960.991 181.263 960.151 180.423 959.076 179.816C958.019 179.209 956.823 178.906 955.488 178.906C954.153 178.906 952.94 179.209 951.848 179.816C950.773 180.423 949.924 181.263 949.3 182.338C948.693 183.395 948.39 184.583 948.39 185.9C948.39 187.217 948.693 188.413 949.3 189.488C949.924 190.545 950.773 191.377 951.848 191.984C952.94 192.591 954.153 192.894 955.488 192.894ZM970.637 176.8H973.211V190.84L983.975 176.8H986.367V195H983.819V180.986L973.029 195H970.637V176.8ZM978.463 175.526C977.042 175.526 975.941 175.223 975.161 174.616C974.398 173.992 974.008 173.108 973.991 171.964H975.837C975.854 172.64 976.088 173.169 976.539 173.55C977.007 173.914 977.648 174.096 978.463 174.096C979.243 174.096 979.867 173.914 980.335 173.55C980.82 173.169 981.072 172.64 981.089 171.964H982.909C982.892 173.091 982.493 173.966 981.713 174.59C980.95 175.214 979.867 175.526 978.463 175.526Z" fill="white"></path> </svg> 